# xmcd
#
# Track frame offsets:
#	150
#	17872
#	39672
#	58557
#	79320
#	94047
#	110380
#	120572
#	151102
#	172767
#
# Disc length: 2467 seconds
#
# Revision: 0
# Processed by: cddbd v1.5.2PL0 Copyright (c) Steve Scherf et al.
# Submitted via: audiograbber 1.83.01
#
DISCID=6f09a10a
DTITLE=Ronnie Earl - I Like It When It Rains
DYEAR=1986
DGENRE=Blues
TTITLE0=Ridin With Ronnie
TTITLE1=Linda
TTITLE2=Midnite Clothes
TTITLE3=Mutcika
TTITLE4=I Like It When It Rains
TTITLE5=Walkin And Cryin
TTITLE6=Down On Guadalupe
TTITLE7=Anna Lee
TTITLE8=Sittin On Top Of The World
TTITLE9=Blues For Jimmie And Jessie
EXTD=
EXTT0=
EXTT1=
EXTT2=
EXTT3=
EXTT4=
EXTT5=
EXTT6=
EXTT7=
EXTT8=
EXTT9=
PLAYORDER=
